<svg width="454" height="321" viewBox="0 0 454 321" fill="none" xmlns="http://www.w3.org/2000/svg">
<g clip-path="url(#clip0_11660_31284)">
<rect width="454" height="321" rx="9.20354" fill="#EDF7F4"/>
<g filter="url(#filter0_d_11660_31284)">
<g clip-path="url(#clip1_11660_31284)">
<path d="M162.938 48.2671C162.938 45.9104 164.848 44 167.205 44H393.361C395.717 44 397.628 45.9104 397.628 48.2671V332.733C397.628 335.09 395.717 337 393.361 337H167.205C164.848 337 162.938 335.09 162.938 332.733V48.2671Z" fill="white"/>
<path d="M162.875 51.5407C162.875 47.6522 166.027 44.5 169.916 44.5H390.525C394.413 44.5 397.565 47.6522 397.565 51.5407V80.987H162.875V51.5407Z" fill="#00B682"/>
<path d="M162.875 51.5485C162.875 47.6601 166.027 44.5078 169.916 44.5078H390.525C394.413 44.5078 397.565 47.66 397.565 51.5485V82.0583H162.875V51.5485Z" fill="#00B682"/>
<path d="M162.875 47.637C162.875 45.9088 164.276 44.5078 166.004 44.5078H394.436C396.164 44.5078 397.565 45.9088 397.565 47.637V82.0583H162.875V47.637Z" fill="#00B682"/>
<path d="M265.877 62.4536H264.052C264.019 62.2175 263.95 62.0077 263.848 61.8244C263.745 61.6382 263.613 61.4799 263.452 61.3493C263.291 61.2188 263.105 61.1188 262.893 61.0493C262.685 60.9798 262.459 60.9451 262.214 60.9451C261.772 60.9451 261.388 61.0549 261.06 61.2743C260.732 61.491 260.478 61.8077 260.297 62.2244C260.117 62.6383 260.026 63.1412 260.026 63.7329C260.026 64.3413 260.117 64.8525 260.297 65.2664C260.481 65.6803 260.736 65.9929 261.064 66.204C261.392 66.4151 261.771 66.5207 262.202 66.5207C262.443 66.5207 262.667 66.4887 262.873 66.4248C263.081 66.3609 263.266 66.2679 263.427 66.1456C263.588 66.0206 263.721 65.8692 263.827 65.6914C263.935 65.5136 264.01 65.3108 264.052 65.083L265.877 65.0914C265.83 65.4831 265.712 65.8609 265.523 66.2248C265.337 66.586 265.085 66.9096 264.769 67.1958C264.455 67.4791 264.08 67.7041 263.643 67.8708C263.21 68.0347 262.72 68.1167 262.172 68.1167C261.411 68.1167 260.731 67.9444 260.131 67.6C259.533 67.2555 259.061 66.7568 258.714 66.104C258.369 65.4511 258.197 64.6608 258.197 63.7329C258.197 62.8023 258.372 62.0105 258.722 61.3577C259.072 60.7048 259.547 60.2075 260.147 59.8658C260.747 59.5214 261.422 59.3491 262.172 59.3491C262.667 59.3491 263.125 59.4186 263.548 59.5575C263.973 59.6964 264.349 59.8992 264.677 60.1659C265.005 60.4298 265.271 60.7534 265.477 61.1368C265.685 61.5202 265.819 61.9591 265.877 62.4536ZM268.678 64.2996V68H266.903V59.4658H268.628V62.7286H268.703C268.848 62.3508 269.081 62.055 269.403 61.841C269.725 61.6244 270.13 61.516 270.616 61.516C271.06 61.516 271.448 61.6132 271.778 61.8077C272.112 61.9994 272.37 62.2758 272.553 62.637C272.74 62.9953 272.831 63.4245 272.828 63.9246V68H271.053V64.2413C271.056 63.8468 270.956 63.5398 270.753 63.3204C270.553 63.1009 270.273 62.9912 269.912 62.9912C269.67 62.9912 269.456 63.0426 269.27 63.1453C269.086 63.2481 268.942 63.3981 268.836 63.5954C268.734 63.7899 268.681 64.0246 268.678 64.2996ZM275.816 68.1208C275.408 68.1208 275.044 68.05 274.724 67.9083C274.405 67.7639 274.152 67.5513 273.966 67.2708C273.782 66.9874 273.691 66.6346 273.691 66.2123C273.691 65.8567 273.756 65.5581 273.887 65.3164C274.017 65.0747 274.195 64.8802 274.42 64.733C274.645 64.5858 274.901 64.4746 275.187 64.3996C275.476 64.3246 275.778 64.2718 276.095 64.2413C276.467 64.2024 276.767 64.1663 276.995 64.1329C277.223 64.0968 277.388 64.044 277.491 63.9746C277.594 63.9051 277.645 63.8024 277.645 63.6662V63.6412C277.645 63.3773 277.562 63.1731 277.395 63.0287C277.231 62.8842 276.998 62.812 276.695 62.812C276.376 62.812 276.122 62.8828 275.933 63.0245C275.744 63.1634 275.619 63.3384 275.558 63.5496L273.916 63.4162C273.999 63.0273 274.163 62.6911 274.408 62.4078C274.652 62.1216 274.967 61.9022 275.353 61.7494C275.742 61.5938 276.192 61.516 276.704 61.516C277.059 61.516 277.399 61.5577 277.725 61.641C278.052 61.7244 278.343 61.8535 278.595 62.0286C278.851 62.2036 279.052 62.4286 279.2 62.7036C279.347 62.9759 279.421 63.3023 279.421 63.6829V68H277.737V67.1124H277.687C277.584 67.3124 277.447 67.4888 277.274 67.6416C277.102 67.7916 276.895 67.9097 276.654 67.9958C276.412 68.0792 276.133 68.1208 275.816 68.1208ZM276.324 66.8957C276.586 66.8957 276.816 66.8443 277.016 66.7415C277.216 66.636 277.373 66.4943 277.487 66.3165C277.601 66.1387 277.658 65.9373 277.658 65.7123V65.033C277.602 65.0691 277.526 65.1025 277.429 65.133C277.334 65.1608 277.227 65.1872 277.108 65.2122C276.988 65.2344 276.869 65.2553 276.749 65.2747C276.63 65.2914 276.522 65.3067 276.424 65.3206C276.216 65.3511 276.034 65.3997 275.878 65.4664C275.723 65.5331 275.602 65.6234 275.516 65.7373C275.43 65.8484 275.387 65.9873 275.387 66.154C275.387 66.3957 275.474 66.5804 275.649 66.7082C275.827 66.8332 276.052 66.8957 276.324 66.8957ZM283.968 61.5994V62.9328H280.113V61.5994H283.968ZM280.988 60.0659H282.763V66.0331C282.763 66.197 282.788 66.3248 282.838 66.4165C282.888 66.5054 282.958 66.5679 283.047 66.604C283.138 66.6401 283.244 66.6582 283.363 66.6582C283.447 66.6582 283.53 66.6513 283.613 66.6374C283.697 66.6207 283.761 66.6082 283.805 66.5999L284.084 67.9208C283.995 67.9486 283.87 67.9806 283.709 68.0167C283.548 68.0556 283.352 68.0792 283.122 68.0875C282.694 68.1042 282.319 68.0472 281.997 67.9167C281.677 67.7861 281.428 67.5833 281.251 67.3083C281.073 67.0332 280.985 66.686 280.988 66.2665V60.0659ZM285.06 68V59.4658H286.835V62.6745H286.889C286.967 62.5022 287.08 62.3272 287.227 62.1494C287.377 61.9688 287.571 61.8188 287.81 61.6994C288.052 61.5771 288.352 61.516 288.71 61.516C289.177 61.516 289.608 61.6382 290.002 61.8827C290.397 62.1244 290.712 62.4897 290.948 62.9787C291.184 63.4648 291.302 64.0746 291.302 64.808C291.302 65.522 291.187 66.1248 290.957 66.6165C290.729 67.1055 290.418 67.4763 290.023 67.7291C289.631 67.9792 289.192 68.1042 288.706 68.1042C288.362 68.1042 288.069 68.0472 287.827 67.9333C287.588 67.8194 287.392 67.6764 287.239 67.5041C287.087 67.3291 286.97 67.1527 286.889 66.9749H286.81V68H285.06ZM286.798 64.7997C286.798 65.1803 286.851 65.5122 286.956 65.7956C287.062 66.079 287.214 66.2998 287.414 66.4582C287.615 66.6137 287.858 66.6915 288.144 66.6915C288.433 66.6915 288.677 66.6124 288.877 66.454C289.077 66.2929 289.229 66.0706 289.331 65.7873C289.437 65.5011 289.49 65.1719 289.49 64.7997C289.49 64.4302 289.438 64.1052 289.336 63.8246C289.233 63.544 289.081 63.3245 288.881 63.1662C288.681 63.0078 288.435 62.9287 288.144 62.9287C287.855 62.9287 287.61 63.0051 287.41 63.1578C287.213 63.3106 287.062 63.5273 286.956 63.8079C286.851 64.0885 286.798 64.4191 286.798 64.7997ZM295.144 68.125C294.497 68.125 293.937 67.9875 293.465 67.7125C292.995 67.4347 292.633 67.0485 292.377 66.554C292.122 66.0567 291.994 65.4803 291.994 64.8247C291.994 64.1635 292.122 63.5857 292.377 63.0912C292.633 62.5939 292.995 62.2078 293.465 61.9327C293.937 61.6549 294.497 61.516 295.144 61.516C295.791 61.516 296.35 61.6549 296.819 61.9327C297.292 62.2078 297.655 62.5939 297.911 63.0912C298.167 63.5857 298.294 64.1635 298.294 64.8247C298.294 65.4803 298.167 66.0567 297.911 66.554C297.655 67.0485 297.292 67.4347 296.819 67.7125C296.35 67.9875 295.791 68.125 295.144 68.125ZM295.152 66.7499C295.447 66.7499 295.693 66.6665 295.89 66.4998C296.087 66.3304 296.236 66.0998 296.336 65.8081C296.439 65.5164 296.49 65.1844 296.49 64.8122C296.49 64.4399 296.439 64.1079 296.336 63.8162C296.236 63.5245 296.087 63.294 295.89 63.1245C295.693 62.955 295.447 62.8703 295.152 62.8703C294.855 62.8703 294.605 62.955 294.402 63.1245C294.202 63.294 294.051 63.5245 293.948 63.8162C293.848 64.1079 293.798 64.4399 293.798 64.8122C293.798 65.1844 293.848 65.5164 293.948 65.8081C294.051 66.0998 294.202 66.3304 294.402 66.4998C294.605 66.6665 294.855 66.7499 295.152 66.7499ZM302.619 61.5994V62.9328H298.764V61.5994H302.619ZM299.639 60.0659H301.414V66.0331C301.414 66.197 301.439 66.3248 301.489 66.4165C301.539 66.5054 301.609 66.5679 301.698 66.604C301.789 66.6401 301.895 66.6582 302.014 66.6582C302.098 66.6582 302.181 66.6513 302.264 66.6374C302.348 66.6207 302.412 66.6082 302.456 66.5999L302.735 67.9208C302.646 67.9486 302.521 67.9806 302.36 68.0167C302.199 68.0556 302.003 68.0792 301.773 68.0875C301.345 68.1042 300.97 68.0472 300.648 67.9167C300.328 67.7861 300.079 67.5833 299.902 67.3083C299.724 67.0332 299.636 66.686 299.639 66.2665V60.0659Z" fill="white"/>
<path d="M183.448 67.4061C183.556 67.4088 183.661 67.3734 183.75 67.3049C183.839 67.2364 183.907 67.1381 183.945 67.0238C183.982 66.9095 183.987 66.7848 183.959 66.667C183.932 66.5493 183.872 66.4443 183.789 66.3668L180.62 63.291L183.789 60.2164C183.846 60.1686 183.894 60.1078 183.93 60.038C183.966 59.9681 183.989 59.8906 183.997 59.8103C184.005 59.73 183.998 59.6488 183.977 59.5715C183.956 59.4943 183.922 59.4228 183.875 59.3615C183.829 59.3002 183.772 59.2504 183.707 59.2153C183.643 59.1802 183.573 59.1604 183.502 59.1573C183.431 59.1542 183.36 59.1677 183.293 59.1972C183.227 59.2266 183.167 59.2713 183.116 59.3283L179.488 62.8453C179.431 62.9004 179.385 62.9687 179.354 63.0458C179.322 63.1229 179.306 63.2067 179.306 63.2916C179.306 63.3764 179.322 63.4603 179.354 63.5374C179.385 63.6144 179.431 63.6829 179.488 63.738L183.116 67.2583C183.208 67.3505 183.325 67.4028 183.448 67.4061Z" fill="white"/>
<line x1="162.875" y1="81.7613" x2="397.565" y2="81.7613" stroke="white" stroke-opacity="0.2" stroke-width="0.586726"/>
<circle cx="374.39" cy="126.534" r="28.4562" fill="url(#paint0_linear_11660_31284)"/>
<rect x="174.942" y="246.731" width="210.635" height="27.5761" rx="13.7881" fill="white" stroke="#D0D5DD" stroke-width="0.586726"/>
<path d="M189.347 257.395H190.087L191.827 261.646H191.887L193.627 257.395H194.367V262.516H193.787V258.625H193.737L192.137 262.516H191.577L189.977 258.625H189.927V262.516H189.347V257.395ZM197 262.596C196.63 262.596 196.31 262.514 196.042 262.351C195.775 262.186 195.57 261.956 195.425 261.661C195.281 261.364 195.21 261.019 195.21 260.625C195.21 260.232 195.281 259.885 195.425 259.585C195.57 259.284 195.771 259.049 196.03 258.88C196.29 258.71 196.593 258.625 196.94 258.625C197.14 258.625 197.337 258.659 197.532 258.725C197.727 258.792 197.905 258.9 198.065 259.05C198.225 259.199 198.352 259.395 198.447 259.64C198.542 259.885 198.59 260.187 198.59 260.545V260.795H195.63V260.285H197.99C197.99 260.069 197.946 259.875 197.86 259.705C197.775 259.535 197.653 259.401 197.495 259.303C197.338 259.204 197.153 259.155 196.94 259.155C196.705 259.155 196.501 259.214 196.33 259.33C196.16 259.445 196.029 259.595 195.937 259.78C195.845 259.965 195.8 260.164 195.8 260.375V260.715C195.8 261.005 195.85 261.251 195.95 261.453C196.051 261.653 196.192 261.806 196.372 261.911C196.552 262.014 196.761 262.066 197 262.066C197.155 262.066 197.295 262.044 197.42 262.001C197.546 261.956 197.656 261.889 197.747 261.801C197.839 261.711 197.91 261.599 197.96 261.466L198.53 261.626C198.47 261.819 198.369 261.989 198.227 262.136C198.086 262.281 197.911 262.394 197.702 262.476C197.494 262.556 197.26 262.596 197 262.596ZM202.067 259.535L201.537 259.685C201.504 259.597 201.454 259.511 201.389 259.428C201.326 259.343 201.239 259.273 201.129 259.218C201.019 259.163 200.878 259.135 200.707 259.135C200.472 259.135 200.276 259.189 200.119 259.298C199.964 259.404 199.887 259.54 199.887 259.705C199.887 259.852 199.94 259.968 200.047 260.053C200.153 260.138 200.32 260.209 200.547 260.265L201.117 260.405C201.46 260.489 201.716 260.616 201.884 260.788C202.053 260.958 202.137 261.177 202.137 261.446C202.137 261.666 202.074 261.862 201.947 262.036C201.822 262.209 201.647 262.346 201.422 262.446C201.197 262.546 200.935 262.596 200.637 262.596C200.245 262.596 199.921 262.511 199.664 262.341C199.407 262.171 199.245 261.922 199.177 261.596L199.737 261.456C199.79 261.662 199.891 261.817 200.039 261.921C200.189 262.024 200.385 262.076 200.627 262.076C200.902 262.076 201.12 262.017 201.282 261.901C201.445 261.782 201.527 261.641 201.527 261.476C201.527 261.342 201.48 261.23 201.387 261.14C201.294 261.049 201.15 260.98 200.957 260.935L200.317 260.785C199.965 260.702 199.707 260.573 199.542 260.398C199.378 260.221 199.297 260 199.297 259.735C199.297 259.519 199.357 259.327 199.479 259.16C199.603 258.994 199.77 258.863 199.982 258.768C200.195 258.673 200.437 258.625 200.707 258.625C201.087 258.625 201.385 258.709 201.602 258.875C201.82 259.042 201.975 259.262 202.067 259.535ZM205.605 259.535L205.075 259.685C205.041 259.597 204.992 259.511 204.927 259.428C204.864 259.343 204.777 259.273 204.667 259.218C204.557 259.163 204.416 259.135 204.244 259.135C204.009 259.135 203.814 259.189 203.657 259.298C203.502 259.404 203.424 259.54 203.424 259.705C203.424 259.852 203.478 259.968 203.584 260.053C203.691 260.138 203.858 260.209 204.084 260.265L204.655 260.405C204.998 260.489 205.254 260.616 205.422 260.788C205.59 260.958 205.675 261.177 205.675 261.446C205.675 261.666 205.611 261.862 205.485 262.036C205.36 262.209 205.185 262.346 204.96 262.446C204.735 262.546 204.473 262.596 204.174 262.596C203.783 262.596 203.459 262.511 203.202 262.341C202.945 262.171 202.783 261.922 202.714 261.596L203.274 261.456C203.328 261.662 203.429 261.817 203.577 261.921C203.727 262.024 203.923 262.076 204.164 262.076C204.439 262.076 204.658 262.017 204.82 261.901C204.983 261.782 205.065 261.641 205.065 261.476C205.065 261.342 205.018 261.23 204.925 261.14C204.831 261.049 204.688 260.98 204.494 260.935L203.854 260.785C203.503 260.702 203.244 260.573 203.079 260.398C202.916 260.221 202.834 260 202.834 259.735C202.834 259.519 202.895 259.327 203.017 259.16C203.14 258.994 203.308 258.863 203.519 258.768C203.733 258.673 203.974 258.625 204.244 258.625C204.625 258.625 204.923 258.709 205.14 258.875C205.358 259.042 205.513 259.262 205.605 259.535ZM207.552 262.606C207.309 262.606 207.088 262.56 206.89 262.468C206.691 262.375 206.534 262.241 206.417 262.066C206.3 261.889 206.242 261.676 206.242 261.426C206.242 261.205 206.285 261.027 206.372 260.89C206.459 260.752 206.575 260.644 206.72 260.565C206.865 260.487 207.025 260.429 207.2 260.39C207.376 260.35 207.554 260.319 207.732 260.295C207.966 260.265 208.155 260.243 208.3 260.228C208.446 260.211 208.553 260.184 208.62 260.145C208.688 260.107 208.722 260.04 208.722 259.945V259.925C208.722 259.679 208.655 259.487 208.52 259.35C208.386 259.214 208.184 259.145 207.912 259.145C207.63 259.145 207.41 259.207 207.25 259.33C207.09 259.454 206.977 259.585 206.912 259.725L206.352 259.525C206.452 259.292 206.585 259.11 206.752 258.98C206.92 258.849 207.104 258.757 207.302 258.705C207.502 258.652 207.699 258.625 207.892 258.625C208.016 258.625 208.157 258.64 208.317 258.67C208.479 258.699 208.635 258.758 208.785 258.848C208.936 258.938 209.062 259.074 209.162 259.255C209.262 259.437 209.312 259.68 209.312 259.985V262.516H208.722V261.996H208.692C208.652 262.079 208.586 262.168 208.492 262.263C208.399 262.358 208.275 262.439 208.12 262.506C207.965 262.572 207.775 262.606 207.552 262.606ZM207.642 262.076C207.875 262.076 208.072 262.03 208.232 261.938C208.394 261.846 208.516 261.728 208.597 261.583C208.681 261.438 208.722 261.286 208.722 261.125V260.585C208.697 260.615 208.642 260.643 208.557 260.668C208.474 260.691 208.377 260.712 208.267 260.73C208.159 260.747 208.053 260.762 207.95 260.775C207.848 260.787 207.765 260.797 207.702 260.805C207.549 260.825 207.405 260.858 207.272 260.903C207.14 260.946 207.034 261.012 206.952 261.1C206.872 261.187 206.832 261.306 206.832 261.456C206.832 261.661 206.908 261.816 207.06 261.921C207.213 262.024 207.407 262.076 207.642 262.076ZM211.799 264.036C211.514 264.036 211.269 263.999 211.064 263.926C210.859 263.854 210.688 263.759 210.551 263.641C210.416 263.524 210.308 263.399 210.228 263.266L210.699 262.936C210.752 263.006 210.819 263.086 210.901 263.176C210.983 263.267 211.094 263.347 211.236 263.413C211.379 263.482 211.567 263.516 211.799 263.516C212.109 263.516 212.365 263.441 212.566 263.291C212.768 263.141 212.869 262.906 212.869 262.586V261.806H212.819C212.775 261.876 212.714 261.962 212.634 262.066C212.555 262.167 212.442 262.258 212.294 262.338C212.147 262.416 211.949 262.456 211.699 262.456C211.389 262.456 211.11 262.382 210.864 262.236C210.619 262.089 210.424 261.876 210.281 261.596C210.139 261.316 210.068 260.975 210.068 260.575C210.068 260.182 210.138 259.84 210.276 259.548C210.414 259.254 210.607 259.028 210.854 258.868C211.1 258.706 211.385 258.625 211.709 258.625C211.959 258.625 212.157 258.667 212.304 258.75C212.452 258.832 212.565 258.925 212.644 259.03C212.724 259.134 212.785 259.219 212.829 259.285H212.889V258.675H213.459V262.626C213.459 262.956 213.384 263.224 213.234 263.431C213.085 263.639 212.885 263.792 212.634 263.888C212.384 263.987 212.105 264.036 211.799 264.036ZM211.779 261.926C212.015 261.926 212.215 261.871 212.379 261.763C212.542 261.655 212.666 261.499 212.751 261.296C212.836 261.092 212.879 260.849 212.879 260.565C212.879 260.289 212.837 260.045 212.754 259.833C212.67 259.621 212.547 259.455 212.384 259.335C212.22 259.215 212.019 259.155 211.779 259.155C211.529 259.155 211.32 259.219 211.154 259.345C210.989 259.472 210.864 259.642 210.781 259.855C210.699 260.069 210.659 260.305 210.659 260.565C210.659 260.832 210.7 261.068 210.784 261.273C210.869 261.476 210.994 261.636 211.159 261.753C211.325 261.868 211.532 261.926 211.779 261.926ZM216.008 262.596C215.638 262.596 215.319 262.514 215.051 262.351C214.784 262.186 214.578 261.956 214.433 261.661C214.29 261.364 214.218 261.019 214.218 260.625C214.218 260.232 214.29 259.885 214.433 259.585C214.578 259.284 214.78 259.049 215.038 258.88C215.298 258.71 215.602 258.625 215.948 258.625C216.148 258.625 216.346 258.659 216.541 258.725C216.736 258.792 216.913 258.9 217.073 259.05C217.233 259.199 217.361 259.395 217.456 259.64C217.551 259.885 217.598 260.187 217.598 260.545V260.795H214.638V260.285H216.998C216.998 260.069 216.955 259.875 216.868 259.705C216.783 259.535 216.662 259.401 216.503 259.303C216.347 259.204 216.162 259.155 215.948 259.155C215.713 259.155 215.51 259.214 215.338 259.33C215.168 259.445 215.037 259.595 214.946 259.78C214.854 259.965 214.808 260.164 214.808 260.375V260.715C214.808 261.005 214.858 261.251 214.958 261.453C215.06 261.653 215.201 261.806 215.381 261.911C215.561 262.014 215.77 262.066 216.008 262.066C216.163 262.066 216.303 262.044 216.428 262.001C216.555 261.956 216.664 261.889 216.756 261.801C216.848 261.711 216.918 261.599 216.968 261.466L217.538 261.626C217.478 261.819 217.378 261.989 217.236 262.136C217.094 262.281 216.919 262.394 216.711 262.476C216.502 262.556 216.268 262.596 216.008 262.596ZM218.785 262.556C218.662 262.556 218.556 262.511 218.468 262.423C218.379 262.335 218.335 262.229 218.335 262.106C218.335 261.982 218.379 261.876 218.468 261.788C218.556 261.7 218.662 261.656 218.785 261.656C218.909 261.656 219.014 261.7 219.103 261.788C219.191 261.876 219.235 261.982 219.235 262.106C219.235 262.187 219.214 262.262 219.173 262.331C219.133 262.399 219.079 262.454 219.01 262.496C218.944 262.536 218.869 262.556 218.785 262.556ZM220.583 262.556C220.46 262.556 220.354 262.511 220.266 262.423C220.177 262.335 220.133 262.229 220.133 262.106C220.133 261.982 220.177 261.876 220.266 261.788C220.354 261.7 220.46 261.656 220.583 261.656C220.707 261.656 220.813 261.7 220.901 261.788C220.989 261.876 221.033 261.982 221.033 262.106C221.033 262.187 221.013 262.262 220.971 262.331C220.931 262.399 220.877 262.454 220.808 262.496C220.742 262.536 220.667 262.556 220.583 262.556ZM222.382 262.556C222.258 262.556 222.152 262.511 222.064 262.423C221.976 262.335 221.931 262.229 221.931 262.106C221.931 261.982 221.976 261.876 222.064 261.788C222.152 261.7 222.258 261.656 222.382 261.656C222.505 261.656 222.611 261.7 222.699 261.788C222.787 261.876 222.832 261.982 222.832 262.106C222.832 262.187 222.811 262.262 222.769 262.331C222.729 262.399 222.675 262.454 222.607 262.496C222.54 262.536 222.465 262.556 222.382 262.556Z" fill="#D0D5DD"/>
<rect x="360.051" y="248.781" width="23.469" height="23.469" rx="11.7345" fill="#00B682"/>
<mask id="mask0_11660_31284" style="mask-type:alpha" maskUnits="userSpaceOnUse" x="365" y="253" width="15" height="15">
<rect x="365.914" y="253.484" width="14.0814" height="14.0814" fill="#D9D9D9"/>
</mask>
<g mask="url(#mask0_11660_31284)">
<path d="M377.529 261.064L368.493 264.878C368.298 264.956 368.112 264.939 367.936 264.827C367.76 264.714 367.672 264.551 367.672 264.335V256.708C367.672 256.493 367.76 256.329 367.936 256.217C368.112 256.104 368.298 256.087 368.493 256.165L377.529 259.979C377.773 260.087 377.896 260.268 377.896 260.522C377.896 260.776 377.773 260.957 377.529 261.064ZM368.845 263.455L375.798 260.522L368.845 257.588V259.642L372.366 260.522L368.845 261.402V263.455Z" fill="white"/>
</g>
<rect x="174.605" y="128.688" width="20.9276" height="20.9276" rx="10.4638" fill="#B4E5BC"/>
<rect x="174.605" y="128.688" width="20.9276" height="20.9276" rx="10.4638" fill="#D3EED7"/>
<g clip-path="url(#clip2_11660_31284)">
<path d="M183.856 138.982H183.042V138.167H183.856V138.982ZM187.112 138.982H186.298V138.167H187.112V138.982ZM190.369 138.167V139.796H189.555V141.831C189.555 142.001 189.523 142.16 189.459 142.308C189.396 142.457 189.309 142.586 189.199 142.696C189.088 142.806 188.959 142.893 188.811 142.957C188.662 143.02 188.503 143.052 188.334 143.052H186.654L183.856 145.444V143.052H181.821C181.651 143.052 181.492 143.02 181.343 142.957C181.195 142.893 181.066 142.806 180.955 142.696C180.845 142.586 180.758 142.457 180.695 142.308C180.631 142.16 180.599 142.001 180.599 141.831V139.796H179.785V138.167H180.599V136.946C180.599 136.777 180.631 136.618 180.695 136.469C180.758 136.321 180.845 136.191 180.955 136.081C181.066 135.971 181.195 135.884 181.343 135.82C181.492 135.757 181.651 135.725 181.821 135.725H184.67V134.396C184.547 134.324 184.449 134.224 184.377 134.097C184.305 133.97 184.267 133.834 184.263 133.69C184.263 133.575 184.284 133.469 184.327 133.372C184.369 133.274 184.426 133.189 184.498 133.117C184.57 133.045 184.657 132.986 184.759 132.939C184.861 132.892 184.967 132.871 185.077 132.876C185.192 132.876 185.298 132.897 185.395 132.939C185.493 132.982 185.577 133.039 185.65 133.111C185.722 133.183 185.781 133.27 185.828 133.372C185.874 133.473 185.895 133.579 185.891 133.69C185.891 133.834 185.855 133.97 185.783 134.097C185.711 134.224 185.611 134.324 185.484 134.396V135.725H188.334C188.503 135.725 188.662 135.757 188.811 135.82C188.959 135.884 189.088 135.971 189.199 136.081C189.309 136.191 189.396 136.321 189.459 136.469C189.523 136.618 189.555 136.777 189.555 136.946V138.167H190.369ZM188.741 136.946C188.741 136.836 188.7 136.741 188.62 136.66C188.539 136.579 188.444 136.539 188.334 136.539H181.821C181.71 136.539 181.615 136.579 181.534 136.66C181.454 136.741 181.413 136.836 181.413 136.946V141.831C181.413 141.941 181.454 142.037 181.534 142.117C181.615 142.198 181.71 142.238 181.821 142.238H184.67V143.676L186.349 142.238H188.334C188.444 142.238 188.539 142.198 188.62 142.117C188.7 142.037 188.741 141.941 188.741 141.831V136.946ZM183.328 139.885C183.561 140.118 183.828 140.296 184.129 140.419C184.43 140.542 184.746 140.606 185.077 140.61C185.408 140.61 185.724 140.548 186.025 140.425C186.326 140.302 186.593 140.122 186.826 139.885L187.399 140.464C187.089 140.773 186.735 141.011 186.336 141.176C185.938 141.341 185.518 141.424 185.077 141.424C184.64 141.424 184.223 141.341 183.824 141.176C183.425 141.011 183.069 140.773 182.755 140.464L183.328 139.885Z" fill="#00B682"/>
</g>
<rect x="199.094" y="98.7656" width="155.354" height="50.8496" rx="4.18551" fill="#F9FFFD"/>
<rect x="207.465" y="105.047" width="140.705" height="2.67161" rx="1.3358" fill="#CEDDD8"/>
<rect x="207.465" y="112.172" width="140.705" height="2.67161" rx="1.3358" fill="#CEDDD8"/>
<rect x="207.465" y="119.297" width="140.705" height="2.67161" rx="1.3358" fill="#CEDDD8"/>
<rect x="207.465" y="126.422" width="140.705" height="2.67161" rx="1.3358" fill="#CEDDD8"/>
<rect x="207.465" y="133.547" width="140.705" height="2.67161" rx="1.3358" fill="#CEDDD8"/>
<rect x="207.465" y="140.672" width="116.66" height="2.67161" rx="1.3358" fill="#CEDDD8"/>
<path d="M199.726 160.305V154.757H201.666C202.052 154.757 202.371 154.824 202.622 154.958C202.873 155.09 203.06 155.268 203.183 155.491C203.305 155.714 203.367 155.96 203.367 156.231C203.367 156.469 203.324 156.666 203.239 156.821C203.156 156.977 203.046 157.1 202.909 157.19C202.774 157.28 202.626 157.347 202.468 157.39V157.444C202.637 157.455 202.808 157.515 202.979 157.623C203.151 157.732 203.295 157.887 203.41 158.089C203.526 158.291 203.583 158.539 203.583 158.831C203.583 159.109 203.52 159.359 203.394 159.581C203.267 159.804 203.068 159.98 202.795 160.11C202.523 160.24 202.168 160.305 201.731 160.305H199.726ZM200.398 159.709H201.731C202.17 159.709 202.481 159.624 202.665 159.454C202.851 159.283 202.944 159.075 202.944 158.831C202.944 158.643 202.896 158.47 202.801 158.311C202.705 158.15 202.569 158.022 202.392 157.927C202.215 157.829 202.005 157.78 201.763 157.78H200.398V159.709ZM200.398 157.195H201.644C201.846 157.195 202.029 157.155 202.191 157.076C202.356 156.997 202.486 156.885 202.581 156.74C202.679 156.596 202.728 156.426 202.728 156.231C202.728 155.987 202.643 155.78 202.473 155.611C202.303 155.439 202.034 155.353 201.666 155.353H200.398V157.195ZM206.138 160.391C205.763 160.391 205.433 160.302 205.15 160.123C204.868 159.944 204.648 159.694 204.489 159.373C204.332 159.052 204.253 158.676 204.253 158.246C204.253 157.813 204.332 157.434 204.489 157.111C204.648 156.788 204.868 156.537 205.15 156.358C205.433 156.179 205.763 156.09 206.138 156.09C206.514 156.09 206.842 156.179 207.124 156.358C207.408 156.537 207.628 156.788 207.785 157.111C207.944 157.434 208.023 157.813 208.023 158.246C208.023 158.676 207.944 159.052 207.785 159.373C207.628 159.694 207.408 159.944 207.124 160.123C206.842 160.302 206.514 160.391 206.138 160.391ZM206.138 159.817C206.423 159.817 206.658 159.744 206.842 159.598C207.027 159.451 207.163 159.259 207.251 159.021C207.34 158.782 207.384 158.524 207.384 158.246C207.384 157.968 207.34 157.709 207.251 157.469C207.163 157.229 207.027 157.034 206.842 156.886C206.658 156.738 206.423 156.664 206.138 156.664C205.853 156.664 205.618 156.738 205.434 156.886C205.25 157.034 205.113 157.229 205.025 157.469C204.936 157.709 204.892 157.968 204.892 158.246C204.892 158.524 204.936 158.782 205.025 159.021C205.113 159.259 205.25 159.451 205.434 159.598C205.618 159.744 205.853 159.817 206.138 159.817ZM210.656 156.144V156.686H208.5V156.144H210.656ZM209.128 155.148H209.768V159.113C209.768 159.293 209.794 159.429 209.846 159.519C209.9 159.608 209.969 159.667 210.052 159.698C210.137 159.727 210.226 159.741 210.32 159.741C210.391 159.741 210.448 159.738 210.493 159.73C210.539 159.721 210.575 159.714 210.602 159.709L210.732 160.283C210.688 160.299 210.628 160.316 210.55 160.332C210.473 160.35 210.374 160.359 210.255 160.359C210.074 160.359 209.898 160.32 209.724 160.242C209.553 160.165 209.41 160.046 209.296 159.888C209.184 159.729 209.128 159.528 209.128 159.286V155.148ZM213.923 158.365C213.79 158.365 213.675 158.317 213.58 158.222C213.484 158.126 213.436 158.011 213.436 157.878C213.436 157.744 213.484 157.629 213.58 157.534C213.675 157.438 213.79 157.39 213.923 157.39C214.057 157.39 214.172 157.438 214.267 157.534C214.363 157.629 214.411 157.744 214.411 157.878C214.411 157.966 214.388 158.048 214.343 158.122C214.3 158.196 214.241 158.255 214.167 158.3C214.095 158.344 214.014 158.365 213.923 158.365ZM217.387 160.305V159.817L219.218 157.813C219.433 157.578 219.61 157.374 219.749 157.201C219.888 157.025 219.991 156.861 220.058 156.708C220.127 156.552 220.161 156.39 220.161 156.22C220.161 156.025 220.114 155.856 220.02 155.714C219.928 155.571 219.802 155.461 219.641 155.383C219.48 155.306 219.3 155.267 219.099 155.267C218.886 155.267 218.7 155.311 218.541 155.399C218.384 155.486 218.262 155.608 218.176 155.765C218.091 155.922 218.048 156.106 218.048 156.318H217.409C217.409 155.993 217.484 155.707 217.634 155.462C217.784 155.216 217.988 155.025 218.246 154.887C218.506 154.75 218.798 154.682 219.121 154.682C219.446 154.682 219.734 154.75 219.985 154.887C220.236 155.025 220.433 155.21 220.575 155.443C220.718 155.676 220.789 155.935 220.789 156.22C220.789 156.424 220.752 156.624 220.678 156.819C220.606 157.012 220.48 157.228 220.299 157.466C220.12 157.703 219.872 157.992 219.554 158.333L218.308 159.665V159.709H220.887V160.305H217.387ZM222.503 157.802V160.305H221.864V154.757H222.503V156.794H222.557C222.655 156.579 222.801 156.409 222.996 156.282C223.193 156.154 223.455 156.09 223.782 156.09C224.065 156.09 224.313 156.147 224.526 156.261C224.74 156.373 224.905 156.545 225.022 156.778C225.141 157.009 225.201 157.304 225.201 157.661V160.305H224.562V157.704C224.562 157.374 224.476 157.118 224.304 156.938C224.135 156.756 223.899 156.664 223.597 156.664C223.388 156.664 223.2 156.709 223.034 156.797C222.87 156.886 222.74 157.015 222.644 157.184C222.55 157.354 222.503 157.56 222.503 157.802ZM229.435 160.402C229.171 160.402 228.932 160.353 228.717 160.253C228.502 160.152 228.331 160.007 228.205 159.817C228.079 159.626 228.015 159.395 228.015 159.124C228.015 158.885 228.062 158.692 228.156 158.544C228.25 158.394 228.376 158.277 228.533 158.192C228.69 158.107 228.863 158.044 229.053 158.002C229.244 157.959 229.437 157.925 229.63 157.899C229.883 157.867 230.088 157.843 230.245 157.826C230.404 157.808 230.519 157.778 230.591 157.737C230.665 157.695 230.702 157.623 230.702 157.52V157.499C230.702 157.231 230.629 157.024 230.483 156.876C230.339 156.728 230.119 156.653 229.825 156.653C229.52 156.653 229.28 156.72 229.107 156.854C228.934 156.988 228.812 157.13 228.741 157.282L228.135 157.065C228.243 156.812 228.387 156.616 228.568 156.475C228.75 156.332 228.949 156.233 229.164 156.177C229.381 156.119 229.594 156.09 229.803 156.09C229.937 156.09 230.09 156.106 230.264 156.139C230.439 156.17 230.608 156.234 230.77 156.331C230.934 156.429 231.071 156.576 231.179 156.773C231.287 156.969 231.342 157.233 231.342 157.564V160.305H230.702V159.741H230.67C230.627 159.832 230.554 159.928 230.453 160.031C230.352 160.134 230.218 160.222 230.05 160.294C229.882 160.366 229.677 160.402 229.435 160.402ZM229.532 159.828C229.785 159.828 229.998 159.778 230.171 159.679C230.347 159.58 230.478 159.451 230.567 159.294C230.657 159.137 230.702 158.972 230.702 158.799V158.214C230.675 158.246 230.616 158.276 230.524 158.303C230.433 158.328 230.329 158.351 230.209 158.371C230.092 158.389 229.977 158.405 229.865 158.419C229.755 158.432 229.666 158.443 229.597 158.452C229.431 158.474 229.276 158.509 229.131 158.558C228.989 158.605 228.873 158.676 228.785 158.772C228.698 158.866 228.655 158.994 228.655 159.156C228.655 159.378 228.737 159.546 228.901 159.66C229.067 159.772 229.278 159.828 229.532 159.828ZM234.035 161.952C233.726 161.952 233.461 161.912 233.239 161.832C233.017 161.755 232.832 161.652 232.684 161.524C232.537 161.397 232.421 161.262 232.334 161.117L232.843 160.76C232.901 160.836 232.974 160.922 233.063 161.02C233.151 161.119 233.272 161.205 233.426 161.277C233.581 161.351 233.784 161.388 234.035 161.388C234.371 161.388 234.648 161.307 234.867 161.144C235.085 160.982 235.194 160.727 235.194 160.381V159.535H235.14C235.093 159.611 235.026 159.705 234.94 159.817C234.855 159.927 234.732 160.026 234.571 160.112C234.413 160.197 234.198 160.24 233.927 160.24C233.591 160.24 233.289 160.16 233.022 160.001C232.757 159.842 232.546 159.611 232.391 159.308C232.238 159.005 232.161 158.636 232.161 158.203C232.161 157.777 232.236 157.406 232.386 157.09C232.535 156.772 232.744 156.526 233.011 156.353C233.279 156.178 233.587 156.09 233.938 156.09C234.208 156.09 234.423 156.135 234.582 156.226C234.743 156.314 234.866 156.415 234.951 156.529C235.037 156.641 235.104 156.733 235.151 156.805H235.216V156.144H235.834V160.424C235.834 160.781 235.752 161.072 235.59 161.296C235.429 161.522 235.212 161.687 234.94 161.792C234.669 161.898 234.367 161.952 234.035 161.952ZM234.013 159.665C234.27 159.665 234.487 159.607 234.664 159.489C234.84 159.372 234.975 159.203 235.067 158.983C235.159 158.763 235.205 158.499 235.205 158.192C235.205 157.892 235.16 157.628 235.07 157.398C234.98 157.169 234.846 156.989 234.669 156.859C234.492 156.729 234.273 156.664 234.013 156.664C233.743 156.664 233.517 156.733 233.336 156.87C233.158 157.007 233.023 157.192 232.933 157.423C232.844 157.654 232.8 157.91 232.8 158.192C232.8 158.481 232.845 158.736 232.935 158.959C233.028 159.179 233.163 159.352 233.342 159.479C233.522 159.603 233.746 159.665 234.013 159.665ZM238.541 160.391C238.166 160.391 237.836 160.302 237.553 160.123C237.271 159.944 237.051 159.694 236.892 159.373C236.735 159.052 236.656 158.676 236.656 158.246C236.656 157.813 236.735 157.434 236.892 157.111C237.051 156.788 237.271 156.537 237.553 156.358C237.836 156.179 238.166 156.09 238.541 156.09C238.917 156.09 239.246 156.179 239.527 156.358C239.811 156.537 240.031 156.788 240.188 157.111C240.347 157.434 240.427 157.813 240.427 158.246C240.427 158.676 240.347 159.052 240.188 159.373C240.031 159.694 239.811 159.944 239.527 160.123C239.246 160.302 238.917 160.391 238.541 160.391ZM238.541 159.817C238.827 159.817 239.061 159.744 239.246 159.598C239.43 159.451 239.566 159.259 239.655 159.021C239.743 158.782 239.787 158.524 239.787 158.246C239.787 157.968 239.743 157.709 239.655 157.469C239.566 157.229 239.43 157.034 239.246 156.886C239.061 156.738 238.827 156.664 238.541 156.664C238.256 156.664 238.021 156.738 237.837 156.886C237.653 157.034 237.517 157.229 237.428 157.469C237.34 157.709 237.295 157.968 237.295 158.246C237.295 158.524 237.34 158.782 237.428 159.021C237.517 159.259 237.653 159.451 237.837 159.598C238.021 159.744 238.256 159.817 238.541 159.817ZM241.716 160.348C241.582 160.348 241.467 160.3 241.372 160.204C241.276 160.109 241.228 159.994 241.228 159.86C241.228 159.727 241.276 159.612 241.372 159.516C241.467 159.421 241.582 159.373 241.716 159.373C241.849 159.373 241.964 159.421 242.06 159.516C242.155 159.612 242.203 159.727 242.203 159.86C242.203 159.949 242.181 160.03 242.135 160.104C242.092 160.178 242.033 160.238 241.959 160.283C241.887 160.326 241.806 160.348 241.716 160.348Z" fill="#B1B3BD"/>
<rect x="262.223" y="167.953" width="123.604" height="27.3805" rx="4.69381" fill="#00B682"/>
<rect x="271.609" y="178.516" width="104.828" height="6.25841" rx="3.1292" fill="#D4F1E8"/>
<g clip-path="url(#clip3_11660_31284)">
<path d="M363.541 202.515C363.359 202.33 363.062 202.328 362.877 202.509L359.408 205.939L357.9 204.377C357.72 204.19 357.422 204.183 357.235 204.363C357.047 204.543 357.041 204.841 357.221 205.029C357.222 205.029 357.222 205.03 357.223 205.031L359.062 206.937C359.15 207.027 359.271 207.077 359.396 207.078H359.401C359.525 207.078 359.643 207.029 359.731 206.942L363.537 203.178C363.721 202.996 363.723 202.699 363.541 202.515Z" fill="#15B585"/>
<path d="M361.887 206.932C361.975 207.021 362.095 207.072 362.22 207.073H362.225C362.349 207.073 362.467 207.024 362.555 206.937L366.361 203.173C366.534 202.979 366.516 202.682 366.322 202.509C366.146 202.353 365.881 202.351 365.703 202.504L362.234 205.934L362.111 205.805C361.931 205.618 361.633 205.611 361.446 205.791C361.258 205.971 361.252 206.269 361.432 206.456C361.433 206.457 361.433 206.458 361.434 206.459L361.887 206.932Z" fill="#15B585"/>
</g>
<path d="M372.248 202.886C372.218 202.633 372.097 202.436 371.883 202.296C371.67 202.156 371.408 202.086 371.098 202.086C370.872 202.086 370.673 202.123 370.503 202.196C370.335 202.269 370.203 202.37 370.108 202.499C370.015 202.627 369.968 202.773 369.968 202.936C369.968 203.073 370.001 203.19 370.066 203.289C370.132 203.385 370.217 203.466 370.321 203.531C370.424 203.595 370.532 203.647 370.646 203.689C370.759 203.729 370.863 203.761 370.958 203.786L371.478 203.926C371.612 203.961 371.76 204.01 371.923 204.071C372.088 204.133 372.246 204.217 372.396 204.324C372.548 204.429 372.673 204.564 372.771 204.729C372.869 204.894 372.919 205.096 372.919 205.336C372.919 205.613 372.846 205.863 372.701 206.086C372.558 206.31 372.348 206.487 372.071 206.619C371.796 206.751 371.462 206.817 371.068 206.817C370.702 206.817 370.384 206.757 370.116 206.639C369.849 206.521 369.639 206.356 369.486 206.144C369.334 205.932 369.248 205.686 369.228 205.406H369.868C369.885 205.6 369.95 205.76 370.063 205.886C370.178 206.011 370.323 206.105 370.498 206.167C370.675 206.227 370.865 206.257 371.068 206.257C371.305 206.257 371.518 206.218 371.706 206.142C371.894 206.063 372.043 205.955 372.153 205.816C372.263 205.676 372.318 205.513 372.318 205.326C372.318 205.156 372.271 205.018 372.176 204.911C372.081 204.805 371.956 204.718 371.801 204.651C371.646 204.585 371.478 204.526 371.298 204.476L370.668 204.296C370.268 204.181 369.952 204.017 369.718 203.804C369.485 203.59 369.368 203.311 369.368 202.966C369.368 202.679 369.446 202.429 369.601 202.216C369.757 202.001 369.967 201.834 370.231 201.716C370.496 201.596 370.792 201.536 371.118 201.536C371.448 201.536 371.742 201.595 371.998 201.714C372.255 201.83 372.458 201.99 372.609 202.194C372.76 202.397 372.84 202.628 372.849 202.886H372.248ZM375.327 206.807C374.957 206.807 374.638 206.725 374.37 206.562C374.103 206.397 373.897 206.167 373.752 205.871C373.609 205.575 373.537 205.23 373.537 204.836C373.537 204.443 373.609 204.096 373.752 203.796C373.897 203.495 374.099 203.26 374.357 203.091C374.617 202.921 374.921 202.836 375.267 202.836C375.467 202.836 375.665 202.87 375.86 202.936C376.055 203.003 376.232 203.111 376.392 203.261C376.552 203.41 376.68 203.606 376.775 203.851C376.87 204.096 376.918 204.398 376.918 204.756V205.006H373.957V204.496H376.317C376.317 204.28 376.274 204.086 376.187 203.916C376.102 203.746 375.981 203.612 375.822 203.514C375.666 203.415 375.481 203.366 375.267 203.366C375.032 203.366 374.829 203.425 374.657 203.541C374.487 203.656 374.356 203.806 374.265 203.991C374.173 204.176 374.127 204.375 374.127 204.586V204.926C374.127 205.216 374.177 205.462 374.277 205.664C374.379 205.864 374.52 206.016 374.7 206.122C374.88 206.225 375.089 206.277 375.327 206.277C375.482 206.277 375.622 206.255 375.747 206.212C375.874 206.167 375.983 206.1 376.075 206.011C376.167 205.921 376.237 205.81 376.287 205.676L376.858 205.836C376.798 206.03 376.697 206.2 376.555 206.347C376.413 206.492 376.238 206.605 376.03 206.687C375.822 206.767 375.587 206.807 375.327 206.807ZM379.284 206.807C378.914 206.807 378.595 206.725 378.327 206.562C378.06 206.397 377.854 206.167 377.709 205.871C377.566 205.575 377.494 205.23 377.494 204.836C377.494 204.443 377.566 204.096 377.709 203.796C377.854 203.495 378.056 203.26 378.314 203.091C378.574 202.921 378.878 202.836 379.224 202.836C379.424 202.836 379.622 202.87 379.817 202.936C380.012 203.003 380.19 203.111 380.35 203.261C380.51 203.41 380.637 203.606 380.732 203.851C380.827 204.096 380.875 204.398 380.875 204.756V205.006H377.914V204.496H380.275C380.275 204.28 380.231 204.086 380.145 203.916C380.06 203.746 379.938 203.612 379.78 203.514C379.623 203.415 379.438 203.366 379.224 203.366C378.989 203.366 378.786 203.425 378.614 203.541C378.444 203.656 378.314 203.806 378.222 203.991C378.13 204.176 378.084 204.375 378.084 204.586V204.926C378.084 205.216 378.134 205.462 378.234 205.664C378.336 205.864 378.477 206.016 378.657 206.122C378.837 206.225 379.046 206.277 379.284 206.277C379.439 206.277 379.579 206.255 379.704 206.212C379.831 206.167 379.94 206.1 380.032 206.011C380.124 205.921 380.195 205.81 380.245 205.676L380.815 205.836C380.755 206.03 380.654 206.2 380.512 206.347C380.37 206.492 380.195 206.605 379.987 206.687C379.779 206.767 379.544 206.807 379.284 206.807ZM382.221 204.416V206.727H381.631V202.886H382.201V203.486H382.251C382.341 203.291 382.478 203.135 382.661 203.016C382.845 202.896 383.082 202.836 383.372 202.836C383.632 202.836 383.859 202.89 384.054 202.996C384.249 203.101 384.401 203.261 384.509 203.476C384.618 203.69 384.672 203.96 384.672 204.286V206.727H384.082V204.326C384.082 204.025 384.003 203.79 383.847 203.621C383.69 203.451 383.475 203.366 383.202 203.366C383.013 203.366 382.845 203.407 382.696 203.489C382.55 203.57 382.434 203.69 382.349 203.846C382.264 204.003 382.221 204.193 382.221 204.416Z" fill="#00B682"/>
<rect x="174.605" y="214.094" width="23.469" height="23.469" rx="11.7345" fill="#B4E5BC"/>
<rect x="174.605" y="214.094" width="23.469" height="23.469" rx="11.7345" fill="#D3EED7"/>
<g clip-path="url(#clip4_11660_31284)">
<path d="M184.971 225.637H184.058V224.724H184.971V225.637ZM188.623 225.637H187.71V224.724H188.623V225.637ZM192.275 224.724V226.55H191.362V228.833C191.362 229.023 191.327 229.201 191.255 229.368C191.184 229.534 191.087 229.679 190.963 229.803C190.839 229.926 190.694 230.024 190.528 230.095C190.361 230.167 190.183 230.202 189.993 230.202H188.11L184.971 232.884V230.202H182.689C182.499 230.202 182.32 230.167 182.154 230.095C181.987 230.024 181.842 229.926 181.719 229.803C181.595 229.679 181.498 229.534 181.426 229.368C181.355 229.201 181.319 229.023 181.319 228.833V226.55H180.406V224.724H181.319V223.355C181.319 223.164 181.355 222.986 181.426 222.82C181.498 222.653 181.595 222.508 181.719 222.385C181.842 222.261 181.987 222.164 182.154 222.092C182.32 222.021 182.499 221.985 182.689 221.985H185.884V220.494C185.746 220.414 185.637 220.302 185.556 220.159C185.475 220.017 185.433 219.864 185.428 219.703C185.428 219.574 185.452 219.455 185.499 219.346C185.547 219.237 185.611 219.142 185.692 219.061C185.773 218.98 185.87 218.913 185.984 218.861C186.098 218.809 186.217 218.785 186.341 218.79C186.469 218.79 186.588 218.813 186.697 218.861C186.807 218.909 186.902 218.973 186.983 219.054C187.064 219.134 187.13 219.232 187.182 219.346C187.235 219.46 187.259 219.579 187.254 219.703C187.254 219.864 187.213 220.017 187.133 220.159C187.052 220.302 186.94 220.414 186.797 220.494V221.985H189.993C190.183 221.985 190.361 222.021 190.528 222.092C190.694 222.164 190.839 222.261 190.963 222.385C191.087 222.508 191.184 222.653 191.255 222.82C191.327 222.986 191.362 223.164 191.362 223.355V224.724H192.275ZM190.449 223.355C190.449 223.231 190.404 223.124 190.314 223.034C190.223 222.943 190.116 222.898 189.993 222.898H182.689C182.565 222.898 182.458 222.943 182.368 223.034C182.277 223.124 182.232 223.231 182.232 223.355V228.833C182.232 228.956 182.277 229.063 182.368 229.154C182.458 229.244 182.565 229.289 182.689 229.289H185.884V230.901L187.767 229.289H189.993C190.116 229.289 190.223 229.244 190.314 229.154C190.404 229.063 190.449 228.956 190.449 228.833V223.355ZM184.379 226.65C184.641 226.912 184.94 227.111 185.278 227.249C185.616 227.387 185.97 227.458 186.341 227.463C186.712 227.463 187.066 227.394 187.404 227.256C187.741 227.118 188.041 226.916 188.302 226.65L188.944 227.299C188.597 227.646 188.2 227.913 187.753 228.098C187.306 228.284 186.835 228.376 186.341 228.376C185.851 228.376 185.383 228.284 184.936 228.098C184.489 227.913 184.089 227.646 183.737 227.299L184.379 226.65Z" fill="#00B682"/>
</g>
<g clip-path="url(#clip5_11660_31284)">
<rect x="202.77" y="213.68" width="60.4327" height="23.8811" rx="4.69381" fill="#F9FFFD"/>
<path d="M212.553 221.191V220.55H217.033V221.191H215.155V226.523H214.431V221.191H212.553ZM218.581 223.828V226.523H217.892V220.55H218.581V222.743H218.639C218.744 222.512 218.902 222.328 219.112 222.192C219.324 222.054 219.605 221.985 219.957 221.985C220.263 221.985 220.53 222.046 220.76 222.168C220.989 222.289 221.167 222.475 221.293 222.726C221.422 222.974 221.486 223.291 221.486 223.676V226.523H220.798V223.723C220.798 223.367 220.705 223.092 220.52 222.898C220.338 222.701 220.084 222.603 219.759 222.603C219.534 222.603 219.331 222.651 219.152 222.746C218.975 222.841 218.835 222.98 218.732 223.163C218.631 223.346 218.581 223.568 218.581 223.828ZM222.581 226.523V222.043H223.269V226.523H222.581ZM222.931 221.296C222.797 221.296 222.681 221.251 222.584 221.159C222.489 221.068 222.441 220.958 222.441 220.83C222.441 220.701 222.489 220.591 222.584 220.5C222.681 220.409 222.797 220.363 222.931 220.363C223.065 220.363 223.18 220.409 223.275 220.5C223.373 220.591 223.421 220.701 223.421 220.83C223.421 220.958 223.373 221.068 223.275 221.159C223.18 221.251 223.065 221.296 222.931 221.296ZM225.054 223.828V226.523H224.366V222.043H225.031V222.743H225.089C225.194 222.516 225.354 222.333 225.568 222.195C225.782 222.055 226.058 221.985 226.396 221.985C226.7 221.985 226.965 222.047 227.193 222.171C227.42 222.294 227.597 222.481 227.723 222.731C227.85 222.98 227.913 223.295 227.913 223.676V226.523H227.225V223.723C227.225 223.371 227.133 223.097 226.95 222.901C226.768 222.702 226.517 222.603 226.198 222.603C225.978 222.603 225.782 222.651 225.609 222.746C225.438 222.841 225.302 222.98 225.203 223.163C225.104 223.346 225.054 223.568 225.054 223.828ZM229.648 224.89L229.637 224.038H229.777L231.737 222.043H232.589L230.5 224.155H230.442L229.648 224.89ZM229.007 226.523V220.55H229.695V226.523H229.007ZM231.854 226.523L230.103 224.307L230.594 223.828L232.729 226.523H231.854ZM233.31 226.523V222.043H233.999V226.523H233.31ZM233.661 221.296C233.526 221.296 233.411 221.251 233.313 221.159C233.218 221.068 233.17 220.958 233.17 220.83C233.17 220.701 233.218 220.591 233.313 220.5C233.411 220.409 233.526 220.363 233.661 220.363C233.795 220.363 233.909 220.409 234.005 220.5C234.102 220.591 234.151 220.701 234.151 220.83C234.151 220.958 234.102 221.068 234.005 221.159C233.909 221.251 233.795 221.296 233.661 221.296ZM235.784 223.828V226.523H235.095V222.043H235.761V222.743H235.819C235.924 222.516 236.083 222.333 236.297 222.195C236.511 222.055 236.787 221.985 237.126 221.985C237.429 221.985 237.694 222.047 237.922 222.171C238.15 222.294 238.326 222.481 238.453 222.731C238.579 222.98 238.642 223.295 238.642 223.676V226.523H237.954V223.723C237.954 223.371 237.863 223.097 237.68 222.901C237.497 222.702 237.246 222.603 236.927 222.603C236.708 222.603 236.511 222.651 236.338 222.746C236.167 222.841 236.032 222.98 235.933 223.163C235.833 223.346 235.784 223.568 235.784 223.828ZM241.545 228.297C241.212 228.297 240.926 228.254 240.687 228.169C240.448 228.085 240.249 227.974 240.089 227.836C239.932 227.7 239.806 227.554 239.713 227.399L240.261 227.013C240.323 227.095 240.402 227.189 240.497 227.294C240.593 227.4 240.723 227.493 240.888 227.571C241.056 227.65 241.274 227.69 241.545 227.69C241.906 227.69 242.205 227.603 242.44 227.428C242.675 227.253 242.793 226.978 242.793 226.605V225.695H242.735C242.684 225.777 242.612 225.878 242.519 225.998C242.428 226.117 242.295 226.223 242.122 226.316C241.951 226.408 241.72 226.453 241.428 226.453C241.066 226.453 240.742 226.368 240.454 226.197C240.168 226.026 239.941 225.777 239.774 225.45C239.609 225.123 239.526 224.727 239.526 224.26C239.526 223.801 239.607 223.401 239.768 223.061C239.93 222.719 240.154 222.454 240.442 222.268C240.73 222.079 241.062 221.985 241.44 221.985C241.731 221.985 241.963 222.033 242.134 222.13C242.307 222.226 242.439 222.335 242.531 222.457C242.624 222.578 242.696 222.677 242.746 222.755H242.816V222.043H243.482V226.652C243.482 227.037 243.394 227.35 243.219 227.591C243.046 227.834 242.813 228.012 242.519 228.125C242.227 228.24 241.902 228.297 241.545 228.297ZM241.521 225.835C241.797 225.835 242.031 225.772 242.221 225.645C242.412 225.519 242.557 225.337 242.656 225.1C242.755 224.863 242.805 224.579 242.805 224.248C242.805 223.925 242.756 223.641 242.659 223.394C242.562 223.147 242.418 222.953 242.227 222.813C242.037 222.673 241.801 222.603 241.521 222.603C241.23 222.603 240.987 222.677 240.792 222.825C240.6 222.973 240.455 223.171 240.357 223.42C240.262 223.669 240.215 223.945 240.215 224.248C240.215 224.559 240.263 224.835 240.36 225.074C240.46 225.311 240.605 225.498 240.798 225.634C240.992 225.768 241.234 225.835 241.521 225.835ZM245.079 226.57C244.935 226.57 244.812 226.519 244.709 226.416C244.606 226.312 244.554 226.189 244.554 226.045C244.554 225.901 244.606 225.778 244.709 225.675C244.812 225.572 244.935 225.52 245.079 225.52C245.223 225.52 245.346 225.572 245.45 225.675C245.553 225.778 245.604 225.901 245.604 226.045C245.604 226.14 245.58 226.228 245.531 226.308C245.485 226.387 245.421 226.451 245.342 226.5C245.264 226.547 245.176 226.57 245.079 226.57ZM247.177 226.57C247.033 226.57 246.91 226.519 246.806 226.416C246.703 226.312 246.652 226.189 246.652 226.045C246.652 225.901 246.703 225.778 246.806 225.675C246.91 225.572 247.033 225.52 247.177 225.52C247.321 225.52 247.444 225.572 247.547 225.675C247.65 225.778 247.702 225.901 247.702 226.045C247.702 226.14 247.678 226.228 247.629 226.308C247.582 226.387 247.519 226.451 247.439 226.5C247.362 226.547 247.274 226.57 247.177 226.57ZM249.275 226.57C249.131 226.57 249.007 226.519 248.904 226.416C248.801 226.312 248.75 226.189 248.75 226.045C248.75 225.901 248.801 225.778 248.904 225.675C249.007 225.572 249.131 225.52 249.275 225.52C249.419 225.52 249.542 225.572 249.645 225.675C249.748 225.778 249.8 225.901 249.8 226.045C249.8 226.14 249.775 226.228 249.727 226.308C249.68 226.387 249.617 226.451 249.537 226.5C249.459 226.547 249.372 226.57 249.275 226.57ZM251.373 226.57C251.229 226.57 251.105 226.519 251.002 226.416C250.899 226.312 250.847 226.189 250.847 226.045C250.847 225.901 250.899 225.778 251.002 225.675C251.105 225.572 251.229 225.52 251.373 225.52C251.516 225.52 251.64 225.572 251.743 225.675C251.846 225.778 251.898 225.901 251.898 226.045C251.898 226.14 251.873 226.228 251.825 226.308C251.778 226.387 251.715 226.451 251.635 226.5C251.557 226.547 251.47 226.57 251.373 226.57Z" fill="#98A2B3"/>
</g>
</g>
<path d="M162.938 48.2671C162.938 45.9104 164.848 44 167.205 44H393.361C395.717 44 397.628 45.9104 397.628 48.2671V332.733C397.628 335.09 395.717 337 393.361 337H167.205C164.848 337 162.938 335.09 162.938 332.733V48.2671Z" stroke="url(#paint1_linear_11660_31284)" stroke-width="2.30088"/>
</g>
<g clip-path="url(#clip6_11660_31284)">
<path d="M84.7773 213.431L79.0897 216.708L75.827 211.012L81.5146 207.735L84.7773 213.431ZM107.528 200.323L101.84 203.6L98.5773 197.904L104.265 194.627L107.528 200.323ZM127.015 181.518L133.54 192.91L127.853 196.187L136.01 210.427C136.689 211.613 137.104 212.854 137.255 214.148C137.405 215.442 137.316 216.697 136.988 217.912C136.66 219.127 136.104 220.256 135.323 221.298C134.541 222.341 133.557 223.203 132.372 223.886L120.642 230.645L110.675 258.641L101.091 241.91L86.8718 250.103C85.6869 250.785 84.4486 251.203 83.1569 251.355C81.8652 251.508 80.6133 251.42 79.4013 251.093C78.1893 250.765 77.0638 250.21 76.0247 249.428C74.9856 248.646 74.1261 247.661 73.4464 246.475L65.2897 232.235L59.6021 235.512L53.0768 224.12L58.7643 220.843L53.8703 212.3C53.1906 211.113 52.7755 209.872 52.6251 208.578C52.4747 207.284 52.5636 206.029 52.892 204.814C53.2204 203.599 53.7755 202.47 54.5574 201.428C55.3393 200.385 56.3227 199.523 57.5076 198.84L77.4141 187.37L72.0867 178.07C70.9388 178.061 69.8581 177.756 68.8448 177.156C67.8314 176.557 67.021 175.761 66.4136 174.769C65.9548 173.968 65.6781 173.141 65.5835 172.288C65.4888 171.435 65.5489 170.612 65.7636 169.817C65.9783 169.023 66.3477 168.258 66.8717 167.522C67.3957 166.786 68.0513 166.211 68.8385 165.796C69.6383 165.336 70.4638 165.057 71.3151 164.961C72.1663 164.865 72.9882 164.925 73.7807 165.139C74.5731 165.353 75.3362 165.722 76.0699 166.246C76.8036 166.771 77.3765 167.427 77.7887 168.215C78.3665 169.224 78.6585 170.318 78.6647 171.498C78.6709 172.679 78.3741 173.777 77.7743 174.793L83.1017 184.093L103.008 172.624C104.193 171.941 105.431 171.523 106.723 171.371C108.015 171.218 109.267 171.306 110.479 171.634C111.691 171.961 112.816 172.516 113.855 173.298C114.894 174.081 115.754 175.065 116.434 176.252L121.328 184.795L127.015 181.518ZM110.746 179.529C110.304 178.757 109.64 178.252 108.755 178.013C107.869 177.773 107.041 177.876 106.271 178.319L60.7703 204.536C60.0001 204.98 59.495 205.646 59.2551 206.534C59.0151 207.422 59.116 208.251 59.5579 209.022L79.134 243.197C79.5758 243.969 80.2396 244.474 81.1253 244.713C82.011 244.953 82.8389 244.851 83.6091 244.407L103.516 232.937L109.276 242.994L115.246 226.178L129.11 218.19C129.88 217.746 130.385 217.081 130.625 216.193C130.865 215.305 130.764 214.475 130.322 213.704L110.746 179.529ZM84.7088 221.875C87.2727 222.567 89.8526 222.738 92.4486 222.387C95.0446 222.035 97.5064 221.209 99.834 219.907C102.145 218.576 104.105 216.874 105.715 214.802C107.326 212.73 108.47 210.393 109.148 207.793L115.466 209.539C114.544 212.95 113.022 216.037 110.901 218.798C108.779 221.559 106.177 223.828 103.097 225.603C100.046 227.361 96.7963 228.463 93.3491 228.911C89.9018 229.358 86.4619 229.131 83.0293 228.228L84.7088 221.875Z" fill="url(#paint2_linear_11660_31284)"/>
</g>
<g opacity="0.7">
<rect width="454" height="321" rx="9.20354" fill="url(#paint3_linear_11660_31284)" fill-opacity="0.5"/>
<rect x="179.375" y="113.375" width="95.25" height="95.25" rx="47.625" fill="#00B884" fill-opacity="0.6"/>
<rect x="179.375" y="113.375" width="95.25" height="95.25" rx="47.625" stroke="#00B884" stroke-width="0.75"/>
<rect x="203" y="137" width="48.2143" height="48.2143" rx="24.1071" fill="white"/>
<path d="M221.75 152.776V169.442C221.75 169.628 221.797 169.81 221.885 169.97C221.973 170.13 222.1 170.261 222.253 170.352C222.405 170.442 222.578 170.488 222.753 170.484C222.927 170.48 223.098 170.427 223.247 170.33L236.014 161.997C236.157 161.904 236.275 161.773 236.357 161.618C236.439 161.462 236.482 161.287 236.482 161.109C236.482 160.931 236.439 160.756 236.357 160.601C236.275 160.446 236.157 160.315 236.014 160.222L223.247 151.889C223.098 151.792 222.927 151.738 222.753 151.735C222.578 151.731 222.405 151.776 222.253 151.867C222.1 151.957 221.973 152.089 221.885 152.249C221.797 152.409 221.75 152.591 221.75 152.776Z" fill="#00B884"/>
</g>
</g>
<defs>
<filter id="filter0_d_11660_31284" x="127.212" y="4.82057" width="306.139" height="364.444" filterUnits="userSpaceOnUse" color-interpolation-filters="sRGB">
<feFlood flood-opacity="0" result="BackgroundImageFix"/>
<feColorMatrix in="SourceAlpha" type="matrix" values="0 0 0 0 0 0 0 0 0 0 0 0 0 0 0 0 0 0 127 0" result="hardAlpha"/>
<feOffset dy="-3.45736"/>
<feGaussianBlur stdDeviation="17.2868"/>
<feComposite in2="hardAlpha" operator="out"/>
<feColorMatrix type="matrix" values="0 0 0 0 0 0 0 0 0 0.00392157 0 0 0 0 0.137255 0 0 0 0.12 0"/>
<feBlend mode="normal" in2="BackgroundImageFix" result="effect1_dropShadow_11660_31284"/>
<feBlend mode="normal" in="SourceGraphic" in2="effect1_dropShadow_11660_31284" result="shape"/>
</filter>
<linearGradient id="paint0_linear_11660_31284" x1="374.39" y1="98.0781" x2="374.39" y2="154.991" gradientUnits="userSpaceOnUse">
<stop stop-color="white" stop-opacity="0.12"/>
<stop offset="1" stop-color="#00B682" stop-opacity="0"/>
</linearGradient>
<linearGradient id="paint1_linear_11660_31284" x1="286.932" y1="44" x2="184.186" y2="202.635" gradientUnits="userSpaceOnUse">
<stop stop-color="#E6C6FF"/>
<stop offset="0.329759" stop-color="#D8FF98"/>
<stop offset="0.738168" stop-color="#B3EDFF"/>
<stop offset="0.999391" stop-color="#BFFFDA"/>
</linearGradient>
<linearGradient id="paint2_linear_11660_31284" x1="68.8364" y1="165.793" x2="119.428" y2="253.598" gradientUnits="userSpaceOnUse">
<stop stop-color="#00B682" stop-opacity="0.13"/>
<stop offset="1" stop-color="#03B784" stop-opacity="0"/>
</linearGradient>
<linearGradient id="paint3_linear_11660_31284" x1="227" y1="0" x2="227" y2="321" gradientUnits="userSpaceOnUse">
<stop stop-color="#00B682"/>
<stop offset="0.813479" stop-color="white"/>
<stop offset="1" stop-color="white"/>
</linearGradient>
<clipPath id="clip0_11660_31284">
<rect width="454" height="321" rx="9.20354" fill="white"/>
</clipPath>
<clipPath id="clip1_11660_31284">
<path d="M162.938 48.2671C162.938 45.9104 164.848 44 167.205 44H393.361C395.717 44 397.628 45.9104 397.628 48.2671V332.733C397.628 335.09 395.717 337 393.361 337H167.205C164.848 337 162.938 335.09 162.938 332.733V48.2671Z" fill="white"/>
</clipPath>
<clipPath id="clip2_11660_31284">
<rect width="12.5565" height="12.5565" fill="white" transform="translate(178.797 132.875)"/>
</clipPath>
<clipPath id="clip3_11660_31284">
<rect width="9.38761" height="9.38761" fill="white" transform="translate(357.094 200.031)"/>
</clipPath>
<clipPath id="clip4_11660_31284">
<rect width="14.0814" height="14.0814" fill="white" transform="translate(179.297 218.797)"/>
</clipPath>
<clipPath id="clip5_11660_31284">
<rect x="202.77" y="213.68" width="60.4327" height="23.8811" rx="4.69381" fill="white"/>
</clipPath>
<clipPath id="clip6_11660_31284">
<rect width="101.432" height="101.582" fill="white" transform="matrix(0.866463 -0.499241 0.497049 0.867723 25 191.109)"/>
</clipPath>
</defs>
</svg>
