<svg width="25" height="24" viewBox="0 0 25 24" fill="none" xmlns="http://www.w3.org/2000/svg">
<g filter="url(#filter0_d_12686_43064)">
<path d="M3.63672 11.9989C3.63672 11.6301 3.9366 11.3346 4.30366 11.2982C7.45969 10.9853 9.9696 8.47533 10.2825 5.31928C10.3189 4.95222 10.6144 4.65234 10.9832 4.65234C11.3521 4.65234 11.6476 4.95222 11.684 5.31928C11.9969 8.47533 14.5068 10.9853 17.6628 11.2982C18.0299 11.3346 18.3298 11.6301 18.3298 11.9989C18.3298 12.3678 18.0299 12.6633 17.6628 12.6997C14.5068 13.0126 11.9969 15.5226 11.684 18.6786C11.6476 19.0456 11.3521 19.3455 10.9832 19.3455C10.6144 19.3455 10.3189 19.0456 10.2825 18.6786C9.9696 15.5225 7.45968 13.0126 4.30366 12.6997C3.9366 12.6633 3.63672 12.3678 3.63672 11.9989Z" fill="url(#paint0_linear_12686_43064)"/>
</g>
<g filter="url(#filter1_d_12686_43064)">
<path d="M16.8594 3.91687C16.8594 3.80621 16.9493 3.71756 17.0595 3.70664C18.0063 3.61277 18.7592 2.85979 18.8531 1.91297C18.864 1.80285 18.9527 1.71289 19.0633 1.71289C19.174 1.71289 19.2626 1.80285 19.2736 1.91297C19.3674 2.85979 20.1204 3.61277 21.0672 3.70664C21.1773 3.71756 21.2673 3.80621 21.2673 3.91687C21.2673 4.02752 21.1773 4.11618 21.0672 4.12709C20.1204 4.22097 19.3674 4.97395 19.2736 5.92076C19.2626 6.03088 19.174 6.12084 19.0633 6.12084C18.9527 6.12084 18.864 6.03088 18.8531 5.92076C18.7592 4.97395 18.0063 4.22097 17.0595 4.12709C16.9493 4.11618 16.8594 4.02752 16.8594 3.91687Z" fill="url(#paint1_linear_12686_43064)"/>
</g>
<g filter="url(#filter2_d_12686_43064)">
<path d="M15.3926 19.3449C15.3926 19.1973 15.5125 19.0791 15.6594 19.0646C16.9218 18.9394 17.9257 17.9354 18.0509 16.673C18.0654 16.5262 18.1836 16.4062 18.3312 16.4062C18.4787 16.4062 18.5969 16.5262 18.6115 16.673C18.7367 17.9354 19.7406 18.9394 21.003 19.0646C21.1498 19.0791 21.2698 19.1973 21.2698 19.3449C21.2698 19.4924 21.1498 19.6106 21.003 19.6252C19.7406 19.7504 18.7367 20.7543 18.6115 22.0167C18.5969 22.1636 18.4787 22.2835 18.3312 22.2835C18.1836 22.2835 18.0654 22.1636 18.0509 22.0167C17.9257 20.7543 16.9218 19.7503 15.6594 19.6252C15.5125 19.6106 15.3926 19.4924 15.3926 19.3449Z" fill="url(#paint2_linear_12686_43064)"/>
</g>
<defs>
<filter id="filter0_d_12686_43064" x="-2.24053" y="3.18303" width="26.4479" height="26.4479" filterUnits="userSpaceOnUse" color-interpolation-filters="sRGB">
<feFlood flood-opacity="0" result="BackgroundImageFix"/>
<feColorMatrix in="SourceAlpha" type="matrix" values="0 0 0 0 0 0 0 0 0 0 0 0 0 0 0 0 0 0 127 0" result="hardAlpha"/>
<feOffset dy="4.40794"/>
<feGaussianBlur stdDeviation="2.93862"/>
<feComposite in2="hardAlpha" operator="out"/>
<feColorMatrix type="matrix" values="0 0 0 0 0 0 0 0 0 0.00392157 0 0 0 0 0.137255 0 0 0 0.13 0"/>
<feBlend mode="normal" in2="BackgroundImageFix" result="effect1_dropShadow_12686_43064"/>
<feBlend mode="normal" in="SourceGraphic" in2="effect1_dropShadow_12686_43064" result="shape"/>
</filter>
<filter id="filter1_d_12686_43064" x="10.9821" y="0.243578" width="16.1627" height="16.1627" filterUnits="userSpaceOnUse" color-interpolation-filters="sRGB">
<feFlood flood-opacity="0" result="BackgroundImageFix"/>
<feColorMatrix in="SourceAlpha" type="matrix" values="0 0 0 0 0 0 0 0 0 0 0 0 0 0 0 0 0 0 127 0" result="hardAlpha"/>
<feOffset dy="4.40794"/>
<feGaussianBlur stdDeviation="2.93862"/>
<feComposite in2="hardAlpha" operator="out"/>
<feColorMatrix type="matrix" values="0 0 0 0 0 0 0 0 0 0.00392157 0 0 0 0 0.137255 0 0 0 0.13 0"/>
<feBlend mode="normal" in2="BackgroundImageFix" result="effect1_dropShadow_12686_43064"/>
<feBlend mode="normal" in="SourceGraphic" in2="effect1_dropShadow_12686_43064" result="shape"/>
</filter>
<filter id="filter2_d_12686_43064" x="9.51533" y="14.9369" width="17.6314" height="17.6314" filterUnits="userSpaceOnUse" color-interpolation-filters="sRGB">
<feFlood flood-opacity="0" result="BackgroundImageFix"/>
<feColorMatrix in="SourceAlpha" type="matrix" values="0 0 0 0 0 0 0 0 0 0 0 0 0 0 0 0 0 0 127 0" result="hardAlpha"/>
<feOffset dy="4.40794"/>
<feGaussianBlur stdDeviation="2.93862"/>
<feComposite in2="hardAlpha" operator="out"/>
<feColorMatrix type="matrix" values="0 0 0 0 0 0 0 0 0 0.00392157 0 0 0 0 0.137255 0 0 0 0.13 0"/>
<feBlend mode="normal" in2="BackgroundImageFix" result="effect1_dropShadow_12686_43064"/>
<feBlend mode="normal" in="SourceGraphic" in2="effect1_dropShadow_12686_43064" result="shape"/>
</filter>
<linearGradient id="paint0_linear_12686_43064" x1="10.9832" y1="4.65234" x2="10.9832" y2="19.3455" gradientUnits="userSpaceOnUse">
<stop stop-color="#CD93FF"/>
<stop offset="1" stop-color="#A741FF"/>
</linearGradient>
<linearGradient id="paint1_linear_12686_43064" x1="19.0633" y1="1.71289" x2="19.0633" y2="6.12084" gradientUnits="userSpaceOnUse">
<stop stop-color="#D099FF"/>
<stop offset="1" stop-color="#CE96FF"/>
</linearGradient>
<linearGradient id="paint2_linear_12686_43064" x1="18.3312" y1="16.4062" x2="18.3312" y2="22.2835" gradientUnits="userSpaceOnUse">
<stop stop-color="#D099FF"/>
<stop offset="1" stop-color="#CE96FF"/>
</linearGradient>
</defs>
</svg>
